# Blender v2.79 (sub 0) OBJ File: ''
# www.blender.org
mtllib fish.mtl
o Icosphere
v -0.156513 -0.030363 -0.022603
v -0.156513 -0.000477 -0.034982
v -0.092822 -0.000477 -0.063190
v 0.067788 -0.000477 -0.063190
v -0.092822 -0.050308 -0.042549
v 0.067788 -0.050308 -0.042549
v -0.092822 -0.070949 0.007282
v 0.067788 -0.070949 0.007282
v -0.092822 -0.050308 0.057113
v 0.067788 -0.050308 0.057113
v -0.092822 -0.000477 0.077754
v 0.067788 -0.000477 0.077754
v -0.092822 0.049354 0.057113
v 0.067788 0.049354 0.057113
v -0.092822 0.069995 0.007282
v 0.067788 0.069995 0.007282
v -0.092822 0.049354 -0.042549
v 0.067788 0.049354 -0.042549
v -0.156512 -0.042742 0.007282
v -0.156513 -0.030363 0.037167
v -0.156513 -0.000477 0.049546
v -0.156513 0.029408 0.037167
v -0.156512 0.041787 0.007282
v -0.156513 0.029408 -0.022603
v -0.188560 -0.000477 0.007282
v -0.188560 -0.000477 0.007282
v -0.188560 -0.000477 0.007282
v -0.188560 -0.000477 0.007282
v -0.188560 -0.000477 0.007282
v -0.188560 -0.000477 0.007282
v -0.188560 -0.000477 0.007282
v -0.188560 -0.000477 0.007282
v 0.105663 -0.000477 -0.050458
v 0.105663 -0.041306 -0.033546
v 0.105663 -0.058217 0.007282
v 0.105663 -0.041306 0.048110
v 0.105663 -0.000477 0.065022
v 0.105663 0.040351 0.048110
v 0.105663 0.057263 0.007282
v 0.105663 0.040351 -0.033546
v 0.143538 -0.000477 -0.028851
v 0.143538 -0.026027 -0.018268
v 0.143538 -0.036610 0.007282
v 0.143538 -0.026027 0.032832
v 0.143538 -0.000477 0.043415
v 0.143538 0.025073 0.032832
v 0.143538 0.035656 0.007282
v 0.143538 0.025073 -0.018268
v 0.168925 -0.000477 -0.008094
v 0.168925 -0.011350 -0.003590
v 0.168925 -0.015853 0.007282
v 0.168925 -0.011350 0.018154
v 0.168925 -0.000477 0.022658
v 0.168925 0.010395 0.018154
v 0.168925 0.014899 0.007282
v 0.168925 0.010395 -0.003590
v 0.181828 -0.000477 0.001674
v 0.181828 -0.004443 0.003317
v 0.181828 -0.006085 0.007282
v 0.181828 -0.004443 0.011247
v 0.181828 -0.000477 0.012890
v 0.181828 0.003488 0.011247
v 0.181828 0.005131 0.007282
v 0.181828 0.003488 0.003317
v 0.276306 -0.000477 -0.014555
v 0.276306 -0.015918 -0.008159
v 0.276306 -0.071633 0.007282
v 0.276306 -0.015918 0.022723
v 0.276306 -0.000477 0.029119
v 0.276306 0.014964 0.022723
v 0.276306 0.070679 0.007282
v 0.276306 0.014964 -0.008159
vn -0.7730 -0.2428 0.5861
vn -0.3787 0.3542 -0.8551
vn 0.0000 -0.3827 -0.9239
vn -0.7730 -0.5861 0.2428
vn -0.3787 0.8551 0.3542
vn -0.0000 -0.9239 -0.3827
vn -0.7730 0.2428 0.5861
vn -0.3787 -0.8551 -0.3542
vn -0.0000 -0.9239 0.3827
vn -0.7730 0.5861 -0.2428
vn -0.3787 -0.3542 -0.8551
vn -0.0000 -0.3827 0.9239
vn -0.7730 -0.5861 -0.2428
vn -0.3787 0.3542 0.8551
vn 0.0000 0.3827 0.9239
vn 0.0000 0.0000 1.0000
vn -0.3787 -0.3542 0.8551
vn 0.0000 0.9239 0.3827
vn 0.2966 -0.3655 0.8823
vn -0.7730 0.5861 0.2428
vn 0.0000 0.9239 -0.3827
vn -0.7730 -0.2428 -0.5861
vn -0.3787 -0.8551 0.3542
vn 0.0000 0.3827 -0.9239
vn -0.3787 0.8551 -0.3542
vn -0.7730 0.2428 -0.5861
vn 0.4663 -0.3385 -0.8173
vn 0.2966 0.3655 -0.8823
vn 0.2966 0.3655 0.8823
vn 0.2966 -0.8823 -0.3655
vn 0.2966 0.8823 0.3655
vn 0.2966 -0.3655 -0.8823
vn 0.2966 -0.8823 0.3655
vn 0.2966 0.8823 -0.3655
vn 0.6027 0.7372 -0.3054
vn 0.4663 0.3385 -0.8173
vn 0.4663 0.8173 0.3385
vn 0.4663 -0.3385 0.8173
vn 0.4663 -0.8173 -0.3385
vn 0.4663 0.8173 -0.3385
vn 0.4663 0.3385 0.8173
vn 0.4663 -0.8173 0.3385
vn 0.5732 -0.7571 -0.3136
vn 0.6027 0.3054 0.7372
vn 0.6027 -0.7372 0.3054
vn 0.6027 -0.3054 -0.7372
vn 0.6027 0.3054 -0.7372
vn 0.6027 0.7372 0.3054
vn 0.6027 -0.3054 0.7372
vn 0.6027 -0.7372 -0.3054
vn -0.1567 0.3780 -0.9125
vn 0.5732 0.7571 -0.3136
vn 0.5732 0.3136 0.7571
vn 0.5732 -0.7571 0.3136
vn 0.5732 -0.3136 -0.7571
vn 0.5732 0.3136 -0.7571
vn 0.5732 0.7571 0.3136
vn 0.5732 -0.3136 0.7571
vn 1.0000 0.0000 0.0000
vn -0.1849 0.3150 0.9309
vn -0.1567 -0.3780 0.9125
vn -0.1849 -0.3150 -0.9309
vn -0.1849 0.3150 -0.9309
vn -0.1567 0.3780 0.9125
vn -0.1849 -0.3150 0.9309
vn -0.1567 -0.3780 -0.9125
usemtl None
s off
f 20//1 21//1 29//1 28//1
f 17//2 3//2 2//2 24//2
f 3//3 4//3 6//3 5//3
f 19//4 20//4 28//4 27//4
f 13//5 15//5 23//5 22//5
f 5//6 6//6 8//6 7//6
f 21//7 22//7 30//7 29//7
f 5//8 7//8 19//8 1//8
f 7//9 8//9 10//9 9//9
f 23//10 24//10 32//10 31//10
f 3//11 5//11 1//11 2//11
f 9//12 10//12 12//12 11//12
f 1//13 19//13 27//13 25//13
f 11//14 13//14 22//14 21//14
f 11//15 12//15 14//15 13//15
f 26//16 25//16 27//16 28//16 29//16 30//16 31//16 32//16
f 9//17 11//17 21//17 20//17
f 13//18 14//18 16//18 15//18
f 12//19 10//19 36//19 37//19
f 22//20 23//20 31//20 30//20
f 15//21 16//21 18//21 17//21
f 2//22 1//22 25//22 26//22
f 7//23 9//23 20//23 19//23
f 17//24 18//24 4//24 3//24
f 15//25 17//25 24//25 23//25
f 24//26 2//26 26//26 32//26
f 34//27 33//27 41//27 42//27
f 4//28 18//28 40//28 33//28
f 14//29 12//29 37//29 38//29
f 8//30 6//30 34//30 35//30
f 16//31 14//31 38//31 39//31
f 6//32 4//32 33//32 34//32
f 10//33 8//33 35//33 36//33
f 18//34 16//34 39//34 40//34
f 48//35 47//35 55//35 56//35
f 33//36 40//36 48//36 41//36
f 39//37 38//37 46//37 47//37
f 37//38 36//38 44//38 45//38
f 35//39 34//39 42//39 43//39
f 40//40 39//40 47//40 48//40
f 38//41 37//41 45//41 46//41
f 36//42 35//42 43//42 44//42
f 51//43 50//43 58//43 59//43
f 46//44 45//44 53//44 54//44
f 44//45 43//45 51//45 52//45
f 42//46 41//46 49//46 50//46
f 41//47 48//47 56//47 49//47
f 47//48 46//48 54//48 55//48
f 45//49 44//49 52//49 53//49
f 43//50 42//50 50//50 51//50
f 57//51 64//51 72//51 65//51
f 56//52 55//52 63//52 64//52
f 54//53 53//53 61//53 62//53
f 52//54 51//54 59//54 60//54
f 50//55 49//55 57//55 58//55
f 49//56 56//56 64//56 57//56
f 55//57 54//57 62//57 63//57
f 53//58 52//58 60//58 61//58
f 66//59 65//59 72//59 71//59 70//59 69//59 68//59 67//59
f 63//60 62//60 70//60 71//60
f 61//61 60//61 68//61 69//61
f 59//62 58//62 66//62 67//62
f 64//63 63//63 71//63 72//63
f 62//64 61//64 69//64 70//64
f 60//65 59//65 67//65 68//65
f 58//66 57//66 65//66 66//66
